<mxfile host="65bd71144e" pages="12">
    <diagram name="Completo" id="vzbYJnzxfjcjPF5ZTne2">
        <mxGraphModel dx="1747" dy="891" grid="1" gridSize="10" guides="1" tooltips="1" connect="1" arrows="1" fold="1" page="1" pageScale="1" pageWidth="827" pageHeight="1169" math="0" shadow="0">
            <root>
                <mxCell id="yzGMiYRflrwIGs22CSFP-0"/>
                <mxCell id="yzGMiYRflrwIGs22CSFP-1" parent="yzGMiYRflrwIGs22CSFP-0"/>
                <mxCell id="5uLm16UJGlhJ5QHhAFZA-7" value="" style="html=1;shadow=0;dashed=0;align=center;verticalAlign=middle;shape=mxgraph.arrows2.arrow;dy=0.53;dx=10.09;direction=north;notch=0;fillColor=#000000;" vertex="1" parent="yzGMiYRflrwIGs22CSFP-1">
                    <mxGeometry x="-71" y="338" width="22" height="50" as="geometry"/>
                </mxCell>
                <mxCell id="yzGMiYRflrwIGs22CSFP-2" value="Casa Editrice" style="whiteSpace=wrap;html=1;align=center;" parent="yzGMiYRflrwIGs22CSFP-1" vertex="1">
                    <mxGeometry x="280" y="120" width="100" height="40" as="geometry"/>
                </mxCell>
                <mxCell id="yzGMiYRflrwIGs22CSFP-3" value="Testo" style="whiteSpace=wrap;html=1;align=center;" parent="yzGMiYRflrwIGs22CSFP-1" vertex="1">
                    <mxGeometry x="280" y="300" width="100" height="40" as="geometry"/>
                </mxCell>
                <mxCell id="yzGMiYRflrwIGs22CSFP-4" value="Autore" style="whiteSpace=wrap;html=1;align=center;" parent="yzGMiYRflrwIGs22CSFP-1" vertex="1">
                    <mxGeometry x="480" y="120" width="100" height="40" as="geometry"/>
                </mxCell>
                <mxCell id="yzGMiYRflrwIGs22CSFP-5" value="Pubblicazione" style="shape=rhombus;perimeter=rhombusPerimeter;whiteSpace=wrap;html=1;align=center;" parent="yzGMiYRflrwIGs22CSFP-1" vertex="1">
                    <mxGeometry x="270" y="200" width="120" height="60" as="geometry"/>
                </mxCell>
                <mxCell id="yzGMiYRflrwIGs22CSFP-7" value="Creazione" style="shape=rhombus;perimeter=rhombusPerimeter;whiteSpace=wrap;html=1;align=center;" parent="yzGMiYRflrwIGs22CSFP-1" vertex="1">
                    <mxGeometry x="471" y="290" width="120" height="60" as="geometry"/>
                </mxCell>
                <mxCell id="yzGMiYRflrwIGs22CSFP-8" value="" style="endArrow=none;html=1;rounded=0;exitX=0.5;exitY=1;exitDx=0;exitDy=0;entryX=0.5;entryY=0;entryDx=0;entryDy=0;" parent="yzGMiYRflrwIGs22CSFP-1" source="yzGMiYRflrwIGs22CSFP-2" target="yzGMiYRflrwIGs22CSFP-5" edge="1">
                    <mxGeometry relative="1" as="geometry">
                        <mxPoint x="100" y="280" as="sourcePoint"/>
                        <mxPoint x="260" y="280" as="targetPoint"/>
                    </mxGeometry>
                </mxCell>
                <mxCell id="yzGMiYRflrwIGs22CSFP-17" value="(0,N)" style="edgeLabel;html=1;align=center;verticalAlign=middle;resizable=0;points=[];" parent="yzGMiYRflrwIGs22CSFP-8" vertex="1" connectable="0">
                    <mxGeometry x="-0.05" y="2" relative="1" as="geometry">
                        <mxPoint x="-22" as="offset"/>
                    </mxGeometry>
                </mxCell>
                <mxCell id="yzGMiYRflrwIGs22CSFP-9" value="" style="endArrow=none;html=1;rounded=0;exitX=0.5;exitY=1;exitDx=0;exitDy=0;entryX=0.5;entryY=0;entryDx=0;entryDy=0;" parent="yzGMiYRflrwIGs22CSFP-1" source="yzGMiYRflrwIGs22CSFP-5" target="yzGMiYRflrwIGs22CSFP-3" edge="1">
                    <mxGeometry relative="1" as="geometry">
                        <mxPoint x="70" y="270" as="sourcePoint"/>
                        <mxPoint x="230" y="270" as="targetPoint"/>
                    </mxGeometry>
                </mxCell>
                <mxCell id="yzGMiYRflrwIGs22CSFP-18" value="(1,1)" style="edgeLabel;html=1;align=center;verticalAlign=middle;resizable=0;points=[];" parent="yzGMiYRflrwIGs22CSFP-9" vertex="1" connectable="0">
                    <mxGeometry x="0.5" y="-1" relative="1" as="geometry">
                        <mxPoint x="-19" y="-10" as="offset"/>
                    </mxGeometry>
                </mxCell>
                <mxCell id="yzGMiYRflrwIGs22CSFP-12" value="" style="endArrow=none;html=1;rounded=0;exitX=0.5;exitY=1;exitDx=0;exitDy=0;" parent="yzGMiYRflrwIGs22CSFP-1" source="yzGMiYRflrwIGs22CSFP-4" target="yzGMiYRflrwIGs22CSFP-7" edge="1">
                    <mxGeometry relative="1" as="geometry">
                        <mxPoint x="210" y="390" as="sourcePoint"/>
                        <mxPoint x="370" y="390" as="targetPoint"/>
                    </mxGeometry>
                </mxCell>
                <mxCell id="yzGMiYRflrwIGs22CSFP-20" value="(0,N)" style="edgeLabel;html=1;align=center;verticalAlign=middle;resizable=0;points=[];" parent="yzGMiYRflrwIGs22CSFP-12" vertex="1" connectable="0">
                    <mxGeometry x="-0.4923" y="-1" relative="1" as="geometry">
                        <mxPoint x="-17" y="-24" as="offset"/>
                    </mxGeometry>
                </mxCell>
                <mxCell id="pOsYEVuAMQ9HLyNE48oW-0" value="(0,1)" style="edgeLabel;html=1;align=center;verticalAlign=middle;resizable=0;points=[];" parent="yzGMiYRflrwIGs22CSFP-12" vertex="1" connectable="0">
                    <mxGeometry x="-0.4923" y="-1" relative="1" as="geometry">
                        <mxPoint x="71" y="-23" as="offset"/>
                    </mxGeometry>
                </mxCell>
                <mxCell id="5uLm16UJGlhJ5QHhAFZA-34" value="(0,1)" style="edgeLabel;html=1;align=center;verticalAlign=middle;resizable=0;points=[];" vertex="1" connectable="0" parent="yzGMiYRflrwIGs22CSFP-12">
                    <mxGeometry x="-0.4923" y="-1" relative="1" as="geometry">
                        <mxPoint x="-509" y="266" as="offset"/>
                    </mxGeometry>
                </mxCell>
                <mxCell id="5uLm16UJGlhJ5QHhAFZA-45" value="(0,1)" style="edgeLabel;html=1;align=center;verticalAlign=middle;resizable=0;points=[];" vertex="1" connectable="0" parent="yzGMiYRflrwIGs22CSFP-12">
                    <mxGeometry x="-0.4923" y="-1" relative="1" as="geometry">
                        <mxPoint x="-544" y="460" as="offset"/>
                    </mxGeometry>
                </mxCell>
                <mxCell id="yzGMiYRflrwIGs22CSFP-13" value="" style="endArrow=none;html=1;rounded=0;exitX=1;exitY=0.5;exitDx=0;exitDy=0;" parent="yzGMiYRflrwIGs22CSFP-1" source="yzGMiYRflrwIGs22CSFP-3" target="yzGMiYRflrwIGs22CSFP-7" edge="1">
                    <mxGeometry relative="1" as="geometry">
                        <mxPoint x="90" y="380" as="sourcePoint"/>
                        <mxPoint x="250" y="380" as="targetPoint"/>
                    </mxGeometry>
                </mxCell>
                <mxCell id="yzGMiYRflrwIGs22CSFP-19" value="(1,N)" style="edgeLabel;html=1;align=center;verticalAlign=middle;resizable=0;points=[];" parent="yzGMiYRflrwIGs22CSFP-13" vertex="1" connectable="0">
                    <mxGeometry x="-0.2211" y="-2" relative="1" as="geometry">
                        <mxPoint x="-15" y="-12" as="offset"/>
                    </mxGeometry>
                </mxCell>
                <mxCell id="yzGMiYRflrwIGs22CSFP-31" value="" style="endArrow=none;html=1;rounded=0;exitX=0.5;exitY=1;exitDx=0;exitDy=0;entryX=0.5;entryY=0;entryDx=0;entryDy=0;" parent="yzGMiYRflrwIGs22CSFP-1" source="yzGMiYRflrwIGs22CSFP-32" target="yzGMiYRflrwIGs22CSFP-2" edge="1">
                    <mxGeometry relative="1" as="geometry">
                        <mxPoint x="155" y="100" as="sourcePoint"/>
                        <mxPoint x="350" y="120" as="targetPoint"/>
                    </mxGeometry>
                </mxCell>
                <mxCell id="yzGMiYRflrwIGs22CSFP-32" value="" style="ellipse;whiteSpace=wrap;html=1;aspect=fixed;" parent="yzGMiYRflrwIGs22CSFP-1" vertex="1">
                    <mxGeometry x="325" y="90" width="10" height="10" as="geometry"/>
                </mxCell>
                <mxCell id="yzGMiYRflrwIGs22CSFP-33" value="Nome" style="text;html=1;strokeColor=none;fillColor=none;align=center;verticalAlign=middle;whiteSpace=wrap;rounded=0;" parent="yzGMiYRflrwIGs22CSFP-1" vertex="1">
                    <mxGeometry x="310" y="70" width="40" height="20" as="geometry"/>
                </mxCell>
                <mxCell id="yzGMiYRflrwIGs22CSFP-37" value="" style="endArrow=none;html=1;rounded=0;exitX=0.5;exitY=1;exitDx=0;exitDy=0;entryX=0.25;entryY=0;entryDx=0;entryDy=0;" parent="yzGMiYRflrwIGs22CSFP-1" source="yzGMiYRflrwIGs22CSFP-38" target="yzGMiYRflrwIGs22CSFP-4" edge="1">
                    <mxGeometry relative="1" as="geometry">
                        <mxPoint x="306" y="100" as="sourcePoint"/>
                        <mxPoint x="501" y="120" as="targetPoint"/>
                    </mxGeometry>
                </mxCell>
                <mxCell id="yzGMiYRflrwIGs22CSFP-38" value="" style="ellipse;whiteSpace=wrap;html=1;aspect=fixed;" parent="yzGMiYRflrwIGs22CSFP-1" vertex="1">
                    <mxGeometry x="480" y="90" width="10" height="10" as="geometry"/>
                </mxCell>
                <mxCell id="yzGMiYRflrwIGs22CSFP-39" value="Nome" style="text;html=1;strokeColor=none;fillColor=none;align=center;verticalAlign=middle;whiteSpace=wrap;rounded=0;" parent="yzGMiYRflrwIGs22CSFP-1" vertex="1">
                    <mxGeometry x="459" y="70" width="40" height="20" as="geometry"/>
                </mxCell>
                <mxCell id="yzGMiYRflrwIGs22CSFP-40" value="" style="endArrow=none;html=1;rounded=0;exitX=0.5;exitY=1;exitDx=0;exitDy=0;entryX=0.5;entryY=0;entryDx=0;entryDy=0;" parent="yzGMiYRflrwIGs22CSFP-1" source="yzGMiYRflrwIGs22CSFP-41" target="yzGMiYRflrwIGs22CSFP-4" edge="1">
                    <mxGeometry relative="1" as="geometry">
                        <mxPoint x="351" y="100" as="sourcePoint"/>
                        <mxPoint x="526" y="120" as="targetPoint"/>
                    </mxGeometry>
                </mxCell>
                <mxCell id="yzGMiYRflrwIGs22CSFP-41" value="" style="ellipse;whiteSpace=wrap;html=1;aspect=fixed;" parent="yzGMiYRflrwIGs22CSFP-1" vertex="1">
                    <mxGeometry x="525" y="90" width="10" height="10" as="geometry"/>
                </mxCell>
                <mxCell id="yzGMiYRflrwIGs22CSFP-42" value="Cognome" style="text;html=1;strokeColor=none;fillColor=none;align=center;verticalAlign=middle;whiteSpace=wrap;rounded=0;" parent="yzGMiYRflrwIGs22CSFP-1" vertex="1">
                    <mxGeometry x="510" y="70" width="40" height="20" as="geometry"/>
                </mxCell>
                <mxCell id="yzGMiYRflrwIGs22CSFP-50" value="" style="endArrow=none;html=1;rounded=0;exitX=0;exitY=0.5;exitDx=0;exitDy=0;entryX=1;entryY=0.25;entryDx=0;entryDy=0;" parent="yzGMiYRflrwIGs22CSFP-1" source="yzGMiYRflrwIGs22CSFP-51" target="yzGMiYRflrwIGs22CSFP-4" edge="1">
                    <mxGeometry relative="1" as="geometry">
                        <mxPoint x="447" y="140" as="sourcePoint"/>
                        <mxPoint x="646" y="160" as="targetPoint"/>
                    </mxGeometry>
                </mxCell>
                <mxCell id="yzGMiYRflrwIGs22CSFP-51" value="" style="ellipse;whiteSpace=wrap;html=1;aspect=fixed;" parent="yzGMiYRflrwIGs22CSFP-1" vertex="1">
                    <mxGeometry x="611" y="120" width="10" height="10" as="geometry"/>
                </mxCell>
                <mxCell id="yzGMiYRflrwIGs22CSFP-52" value="Data di nascita" style="text;html=1;strokeColor=none;fillColor=none;align=center;verticalAlign=middle;whiteSpace=wrap;rounded=0;" parent="yzGMiYRflrwIGs22CSFP-1" vertex="1">
                    <mxGeometry x="622" y="115" width="89" height="20" as="geometry"/>
                </mxCell>
                <mxCell id="yzGMiYRflrwIGs22CSFP-53" value="" style="endArrow=none;html=1;rounded=0;exitX=0;exitY=0.5;exitDx=0;exitDy=0;entryX=1;entryY=0.75;entryDx=0;entryDy=0;" parent="yzGMiYRflrwIGs22CSFP-1" source="yzGMiYRflrwIGs22CSFP-54" target="yzGMiYRflrwIGs22CSFP-4" edge="1">
                    <mxGeometry relative="1" as="geometry">
                        <mxPoint x="492" y="140" as="sourcePoint"/>
                        <mxPoint x="671" y="160" as="targetPoint"/>
                    </mxGeometry>
                </mxCell>
                <mxCell id="yzGMiYRflrwIGs22CSFP-54" value="" style="ellipse;whiteSpace=wrap;html=1;aspect=fixed;" parent="yzGMiYRflrwIGs22CSFP-1" vertex="1">
                    <mxGeometry x="611" y="150" width="10" height="10" as="geometry"/>
                </mxCell>
                <mxCell id="yzGMiYRflrwIGs22CSFP-55" value="Data di morte" style="text;html=1;strokeColor=none;fillColor=none;align=center;verticalAlign=middle;whiteSpace=wrap;rounded=0;" parent="yzGMiYRflrwIGs22CSFP-1" vertex="1">
                    <mxGeometry x="621" y="145" width="90" height="20" as="geometry"/>
                </mxCell>
                <mxCell id="o4mT1XbGUImwSHFmAI3I-2" value="ISBN" style="text;html=1;strokeColor=none;fillColor=none;align=center;verticalAlign=middle;whiteSpace=wrap;rounded=0;" parent="yzGMiYRflrwIGs22CSFP-1" vertex="1">
                    <mxGeometry x="190" y="251" width="40" height="20" as="geometry"/>
                </mxCell>
                <mxCell id="o4mT1XbGUImwSHFmAI3I-3" value="" style="endArrow=none;html=1;rounded=0;exitX=1;exitY=0.5;exitDx=0;exitDy=0;entryX=0;entryY=0;entryDx=0;entryDy=0;" parent="yzGMiYRflrwIGs22CSFP-1" source="o4mT1XbGUImwSHFmAI3I-4" target="yzGMiYRflrwIGs22CSFP-3" edge="1">
                    <mxGeometry relative="1" as="geometry">
                        <mxPoint x="-70" y="380" as="sourcePoint"/>
                        <mxPoint x="104.99999999999989" y="399.99999999999994" as="targetPoint"/>
                    </mxGeometry>
                </mxCell>
                <mxCell id="o4mT1XbGUImwSHFmAI3I-4" value="" style="ellipse;whiteSpace=wrap;html=1;aspect=fixed;fillColor=#000000;" parent="yzGMiYRflrwIGs22CSFP-1" vertex="1">
                    <mxGeometry x="230" y="261" width="10" height="10" as="geometry"/>
                </mxCell>
                <mxCell id="o4mT1XbGUImwSHFmAI3I-5" value="Titolo" style="text;html=1;strokeColor=none;fillColor=none;align=center;verticalAlign=middle;whiteSpace=wrap;rounded=0;" parent="yzGMiYRflrwIGs22CSFP-1" vertex="1">
                    <mxGeometry x="190" y="275" width="41" height="20" as="geometry"/>
                </mxCell>
                <mxCell id="o4mT1XbGUImwSHFmAI3I-6" value="" style="endArrow=none;html=1;rounded=0;exitX=1;exitY=0.5;exitDx=0;exitDy=0;entryX=0;entryY=0.25;entryDx=0;entryDy=0;" parent="yzGMiYRflrwIGs22CSFP-1" source="o4mT1XbGUImwSHFmAI3I-7" target="yzGMiYRflrwIGs22CSFP-3" edge="1">
                    <mxGeometry relative="1" as="geometry">
                        <mxPoint x="-30" y="380" as="sourcePoint"/>
                        <mxPoint x="129.9999999999999" y="399.99999999999994" as="targetPoint"/>
                    </mxGeometry>
                </mxCell>
                <mxCell id="o4mT1XbGUImwSHFmAI3I-7" value="" style="ellipse;whiteSpace=wrap;html=1;aspect=fixed;" parent="yzGMiYRflrwIGs22CSFP-1" vertex="1">
                    <mxGeometry x="230" y="281" width="10" height="10" as="geometry"/>
                </mxCell>
                <mxCell id="o4mT1XbGUImwSHFmAI3I-8" value="Prezzo" style="text;html=1;strokeColor=none;fillColor=none;align=center;verticalAlign=middle;whiteSpace=wrap;rounded=0;" parent="yzGMiYRflrwIGs22CSFP-1" vertex="1">
                    <mxGeometry x="180" y="338" width="50" height="20" as="geometry"/>
                </mxCell>
                <mxCell id="o4mT1XbGUImwSHFmAI3I-11" value="" style="endArrow=none;html=1;rounded=0;exitX=1;exitY=0.5;exitDx=0;exitDy=0;entryX=0;entryY=0.75;entryDx=0;entryDy=0;" parent="yzGMiYRflrwIGs22CSFP-1" source="o4mT1XbGUImwSHFmAI3I-12" target="yzGMiYRflrwIGs22CSFP-3" edge="1">
                    <mxGeometry relative="1" as="geometry">
                        <mxPoint x="-43" y="370" as="sourcePoint"/>
                        <mxPoint x="279.9999999999999" y="390" as="targetPoint"/>
                    </mxGeometry>
                </mxCell>
                <mxCell id="o4mT1XbGUImwSHFmAI3I-12" value="" style="ellipse;whiteSpace=wrap;html=1;aspect=fixed;" parent="yzGMiYRflrwIGs22CSFP-1" vertex="1">
                    <mxGeometry x="230" y="339" width="10" height="10" as="geometry"/>
                </mxCell>
                <mxCell id="o4mT1XbGUImwSHFmAI3I-13" value="" style="endArrow=none;html=1;rounded=0;exitX=1;exitY=0.5;exitDx=0;exitDy=0;entryX=0;entryY=0.5;entryDx=0;entryDy=0;" parent="yzGMiYRflrwIGs22CSFP-1" source="o4mT1XbGUImwSHFmAI3I-20" target="yzGMiYRflrwIGs22CSFP-2" edge="1">
                    <mxGeometry relative="1" as="geometry">
                        <mxPoint x="-70" y="460" as="sourcePoint"/>
                        <mxPoint x="240" y="180" as="targetPoint"/>
                    </mxGeometry>
                </mxCell>
                <mxCell id="5uLm16UJGlhJ5QHhAFZA-15" value="(1,N)" style="edgeLabel;html=1;align=center;verticalAlign=middle;resizable=0;points=[];" vertex="1" connectable="0" parent="o4mT1XbGUImwSHFmAI3I-13">
                    <mxGeometry x="0.098" y="-1" relative="1" as="geometry">
                        <mxPoint x="-10" y="9" as="offset"/>
                    </mxGeometry>
                </mxCell>
                <mxCell id="o4mT1XbGUImwSHFmAI3I-20" value="Sede" style="ellipse;whiteSpace=wrap;html=1;" parent="yzGMiYRflrwIGs22CSFP-1" vertex="1">
                    <mxGeometry x="185" y="125" width="50" height="30" as="geometry"/>
                </mxCell>
                <mxCell id="o4mT1XbGUImwSHFmAI3I-21" value="" style="endArrow=none;html=1;rounded=0;exitX=1;exitY=0.5;exitDx=0;exitDy=0;entryX=0.5;entryY=0;entryDx=0;entryDy=0;" parent="yzGMiYRflrwIGs22CSFP-1" source="o4mT1XbGUImwSHFmAI3I-22" target="o4mT1XbGUImwSHFmAI3I-20" edge="1">
                    <mxGeometry relative="1" as="geometry">
                        <mxPoint x="-173" y="370" as="sourcePoint"/>
                        <mxPoint x="149.9999999999999" y="380" as="targetPoint"/>
                    </mxGeometry>
                </mxCell>
                <mxCell id="o4mT1XbGUImwSHFmAI3I-22" value="" style="ellipse;whiteSpace=wrap;html=1;aspect=fixed;" parent="yzGMiYRflrwIGs22CSFP-1" vertex="1">
                    <mxGeometry x="147" y="100" width="10" height="10" as="geometry"/>
                </mxCell>
                <mxCell id="o4mT1XbGUImwSHFmAI3I-23" value="Stato/Regione" style="text;html=1;strokeColor=none;fillColor=none;align=center;verticalAlign=middle;whiteSpace=wrap;rounded=0;" parent="yzGMiYRflrwIGs22CSFP-1" vertex="1">
                    <mxGeometry x="67" y="117" width="77" height="20" as="geometry"/>
                </mxCell>
                <mxCell id="o4mT1XbGUImwSHFmAI3I-24" value="" style="endArrow=none;html=1;rounded=0;exitX=1;exitY=0.5;exitDx=0;exitDy=0;entryX=0;entryY=0;entryDx=0;entryDy=0;" parent="yzGMiYRflrwIGs22CSFP-1" source="o4mT1XbGUImwSHFmAI3I-25" target="o4mT1XbGUImwSHFmAI3I-20" edge="1">
                    <mxGeometry relative="1" as="geometry">
                        <mxPoint x="-200" y="460" as="sourcePoint"/>
                        <mxPoint x="149.9999999999999" y="390" as="targetPoint"/>
                    </mxGeometry>
                </mxCell>
                <mxCell id="o4mT1XbGUImwSHFmAI3I-25" value="" style="ellipse;whiteSpace=wrap;html=1;aspect=fixed;" parent="yzGMiYRflrwIGs22CSFP-1" vertex="1">
                    <mxGeometry x="147" y="125" width="10" height="10" as="geometry"/>
                </mxCell>
                <mxCell id="o4mT1XbGUImwSHFmAI3I-26" value="Città" style="text;html=1;strokeColor=none;fillColor=none;align=center;verticalAlign=middle;whiteSpace=wrap;rounded=0;" parent="yzGMiYRflrwIGs22CSFP-1" vertex="1">
                    <mxGeometry x="109" y="141" width="43" height="20" as="geometry"/>
                </mxCell>
                <mxCell id="o4mT1XbGUImwSHFmAI3I-27" value="" style="endArrow=none;html=1;rounded=0;exitX=1;exitY=0.5;exitDx=0;exitDy=0;entryX=0;entryY=0.5;entryDx=0;entryDy=0;" parent="yzGMiYRflrwIGs22CSFP-1" source="o4mT1XbGUImwSHFmAI3I-28" target="o4mT1XbGUImwSHFmAI3I-20" edge="1">
                    <mxGeometry relative="1" as="geometry">
                        <mxPoint x="-160" y="460" as="sourcePoint"/>
                        <mxPoint x="149.9999999999999" y="400" as="targetPoint"/>
                    </mxGeometry>
                </mxCell>
                <mxCell id="o4mT1XbGUImwSHFmAI3I-28" value="" style="ellipse;whiteSpace=wrap;html=1;aspect=fixed;" parent="yzGMiYRflrwIGs22CSFP-1" vertex="1">
                    <mxGeometry x="147" y="145" width="10" height="10" as="geometry"/>
                </mxCell>
                <mxCell id="o4mT1XbGUImwSHFmAI3I-29" value="Codice Postale" style="text;html=1;strokeColor=none;fillColor=none;align=center;verticalAlign=middle;whiteSpace=wrap;rounded=0;" parent="yzGMiYRflrwIGs22CSFP-1" vertex="1">
                    <mxGeometry x="48" y="160" width="110" height="20" as="geometry"/>
                </mxCell>
                <mxCell id="o4mT1XbGUImwSHFmAI3I-30" value="" style="endArrow=none;html=1;rounded=0;exitX=1;exitY=0.5;exitDx=0;exitDy=0;entryX=0;entryY=1;entryDx=0;entryDy=0;" parent="yzGMiYRflrwIGs22CSFP-1" source="o4mT1XbGUImwSHFmAI3I-31" target="o4mT1XbGUImwSHFmAI3I-20" edge="1">
                    <mxGeometry relative="1" as="geometry">
                        <mxPoint x="-173" y="450" as="sourcePoint"/>
                        <mxPoint x="150" y="490" as="targetPoint"/>
                    </mxGeometry>
                </mxCell>
                <mxCell id="o4mT1XbGUImwSHFmAI3I-31" value="" style="ellipse;whiteSpace=wrap;html=1;aspect=fixed;" parent="yzGMiYRflrwIGs22CSFP-1" vertex="1">
                    <mxGeometry x="147" y="165" width="10" height="10" as="geometry"/>
                </mxCell>
                <mxCell id="o4mT1XbGUImwSHFmAI3I-32" value="Paese" style="text;html=1;strokeColor=none;fillColor=none;align=center;verticalAlign=middle;whiteSpace=wrap;rounded=0;" parent="yzGMiYRflrwIGs22CSFP-1" vertex="1">
                    <mxGeometry x="112" y="93" width="30" height="20" as="geometry"/>
                </mxCell>
                <mxCell id="o4mT1XbGUImwSHFmAI3I-34" value="Testo Letterario" style="whiteSpace=wrap;html=1;align=center;" parent="yzGMiYRflrwIGs22CSFP-1" vertex="1">
                    <mxGeometry x="213" y="411" width="100" height="40" as="geometry"/>
                </mxCell>
                <mxCell id="o4mT1XbGUImwSHFmAI3I-35" value="Saggio" style="whiteSpace=wrap;html=1;align=center;" parent="yzGMiYRflrwIGs22CSFP-1" vertex="1">
                    <mxGeometry x="344" y="411" width="100" height="40" as="geometry"/>
                </mxCell>
                <mxCell id="o4mT1XbGUImwSHFmAI3I-37" value="" style="html=1;shadow=0;dashed=0;align=center;verticalAlign=middle;shape=mxgraph.arrows2.arrow;dy=0.53;dx=10.09;direction=north;notch=0;fillColor=#000000;" parent="yzGMiYRflrwIGs22CSFP-1" vertex="1">
                    <mxGeometry x="319" y="340" width="22" height="50" as="geometry"/>
                </mxCell>
                <mxCell id="o4mT1XbGUImwSHFmAI3I-41" value="" style="endArrow=none;html=1;" parent="yzGMiYRflrwIGs22CSFP-1" edge="1">
                    <mxGeometry width="50" height="50" relative="1" as="geometry">
                        <mxPoint x="264" y="391" as="sourcePoint"/>
                        <mxPoint x="394" y="391" as="targetPoint"/>
                    </mxGeometry>
                </mxCell>
                <mxCell id="o4mT1XbGUImwSHFmAI3I-43" value="" style="endArrow=none;html=1;exitX=0.5;exitY=0;exitDx=0;exitDy=0;" parent="yzGMiYRflrwIGs22CSFP-1" source="o4mT1XbGUImwSHFmAI3I-34" edge="1">
                    <mxGeometry width="50" height="50" relative="1" as="geometry">
                        <mxPoint x="125" y="441" as="sourcePoint"/>
                        <mxPoint x="263" y="391" as="targetPoint"/>
                    </mxGeometry>
                </mxCell>
                <mxCell id="o4mT1XbGUImwSHFmAI3I-44" value="" style="endArrow=none;html=1;exitX=0.5;exitY=0;exitDx=0;exitDy=0;" parent="yzGMiYRflrwIGs22CSFP-1" source="o4mT1XbGUImwSHFmAI3I-35" edge="1">
                    <mxGeometry width="50" height="50" relative="1" as="geometry">
                        <mxPoint x="284" y="411" as="sourcePoint"/>
                        <mxPoint x="394" y="391" as="targetPoint"/>
                    </mxGeometry>
                </mxCell>
                <mxCell id="o4mT1XbGUImwSHFmAI3I-63" value="" style="endArrow=none;html=1;rounded=0;exitX=0;exitY=1;exitDx=0;exitDy=0;entryX=1;entryY=0;entryDx=0;entryDy=0;" parent="yzGMiYRflrwIGs22CSFP-1" source="o4mT1XbGUImwSHFmAI3I-64" target="yzGMiYRflrwIGs22CSFP-5" edge="1">
                    <mxGeometry relative="1" as="geometry">
                        <mxPoint x="216.99999999999997" y="185" as="sourcePoint"/>
                        <mxPoint x="359.405634719257" y="216.20281735962863" as="targetPoint"/>
                    </mxGeometry>
                </mxCell>
                <mxCell id="o4mT1XbGUImwSHFmAI3I-64" value="" style="ellipse;whiteSpace=wrap;html=1;aspect=fixed;" parent="yzGMiYRflrwIGs22CSFP-1" vertex="1">
                    <mxGeometry x="379" y="190" width="10" height="10" as="geometry"/>
                </mxCell>
                <mxCell id="o4mT1XbGUImwSHFmAI3I-65" value="Anno" style="text;html=1;strokeColor=none;fillColor=none;align=center;verticalAlign=middle;whiteSpace=wrap;rounded=0;" parent="yzGMiYRflrwIGs22CSFP-1" vertex="1">
                    <mxGeometry x="357.5" y="170" width="53" height="20" as="geometry"/>
                </mxCell>
                <mxCell id="pOsYEVuAMQ9HLyNE48oW-3" value="Indirizzo" style="text;html=1;strokeColor=none;fillColor=none;align=center;verticalAlign=middle;whiteSpace=wrap;rounded=0;" parent="yzGMiYRflrwIGs22CSFP-1" vertex="1">
                    <mxGeometry x="92" y="185" width="59" height="20" as="geometry"/>
                </mxCell>
                <mxCell id="pOsYEVuAMQ9HLyNE48oW-4" value="" style="ellipse;whiteSpace=wrap;html=1;aspect=fixed;" parent="yzGMiYRflrwIGs22CSFP-1" vertex="1">
                    <mxGeometry x="147" y="185" width="10" height="10" as="geometry"/>
                </mxCell>
                <mxCell id="pOsYEVuAMQ9HLyNE48oW-5" value="" style="endArrow=none;html=1;rounded=0;exitX=1;exitY=0;exitDx=0;exitDy=0;entryX=0.5;entryY=1;entryDx=0;entryDy=0;" parent="yzGMiYRflrwIGs22CSFP-1" source="pOsYEVuAMQ9HLyNE48oW-4" target="o4mT1XbGUImwSHFmAI3I-20" edge="1">
                    <mxGeometry relative="1" as="geometry">
                        <mxPoint x="167" y="180" as="sourcePoint"/>
                        <mxPoint x="202.3223304703364" y="160.6066017177983" as="targetPoint"/>
                    </mxGeometry>
                </mxCell>
                <mxCell id="pOsYEVuAMQ9HLyNE48oW-9" value="Genere" style="whiteSpace=wrap;html=1;align=center;" parent="yzGMiYRflrwIGs22CSFP-1" vertex="1">
                    <mxGeometry x="212" y="591" width="100" height="40" as="geometry"/>
                </mxCell>
                <mxCell id="pOsYEVuAMQ9HLyNE48oW-10" value="Nome" style="text;html=1;strokeColor=none;fillColor=none;align=center;verticalAlign=middle;whiteSpace=wrap;rounded=0;" parent="yzGMiYRflrwIGs22CSFP-1" vertex="1">
                    <mxGeometry x="139" y="591" width="42.1" height="20" as="geometry"/>
                </mxCell>
                <mxCell id="pOsYEVuAMQ9HLyNE48oW-11" value="" style="endArrow=none;html=1;rounded=0;exitX=1;exitY=0.5;exitDx=0;exitDy=0;entryX=0;entryY=0.25;entryDx=0;entryDy=0;" parent="yzGMiYRflrwIGs22CSFP-1" source="pOsYEVuAMQ9HLyNE48oW-12" target="pOsYEVuAMQ9HLyNE48oW-9" edge="1">
                    <mxGeometry relative="1" as="geometry">
                        <mxPoint x="-95.89999999999998" y="711" as="sourcePoint"/>
                        <mxPoint x="214.10000000000002" y="651" as="targetPoint"/>
                    </mxGeometry>
                </mxCell>
                <mxCell id="pOsYEVuAMQ9HLyNE48oW-12" value="" style="ellipse;whiteSpace=wrap;html=1;aspect=fixed;" parent="yzGMiYRflrwIGs22CSFP-1" vertex="1">
                    <mxGeometry x="180.10000000000002" y="596" width="10" height="10" as="geometry"/>
                </mxCell>
                <mxCell id="pOsYEVuAMQ9HLyNE48oW-13" value="" style="endArrow=none;html=1;rounded=0;entryX=0;entryY=0.75;entryDx=0;entryDy=0;exitX=1;exitY=0.5;exitDx=0;exitDy=0;" parent="yzGMiYRflrwIGs22CSFP-1" source="pOsYEVuAMQ9HLyNE48oW-14" target="pOsYEVuAMQ9HLyNE48oW-9" edge="1">
                    <mxGeometry relative="1" as="geometry">
                        <mxPoint x="192" y="645" as="sourcePoint"/>
                        <mxPoint x="220.99655172412952" y="661.3448275862117" as="targetPoint"/>
                    </mxGeometry>
                </mxCell>
                <mxCell id="pOsYEVuAMQ9HLyNE48oW-14" value="" style="ellipse;whiteSpace=wrap;html=1;aspect=fixed;" parent="yzGMiYRflrwIGs22CSFP-1" vertex="1">
                    <mxGeometry x="180.10000000000002" y="616" width="10" height="10" as="geometry"/>
                </mxCell>
                <mxCell id="pOsYEVuAMQ9HLyNE48oW-15" value="Descrizione" style="text;html=1;strokeColor=none;fillColor=none;align=center;verticalAlign=middle;whiteSpace=wrap;rounded=0;" parent="yzGMiYRflrwIGs22CSFP-1" vertex="1">
                    <mxGeometry x="112" y="611" width="67.1" height="20" as="geometry"/>
                </mxCell>
                <mxCell id="pOsYEVuAMQ9HLyNE48oW-16" value="Genere Testo" style="shape=rhombus;perimeter=rhombusPerimeter;whiteSpace=wrap;html=1;align=center;" parent="yzGMiYRflrwIGs22CSFP-1" vertex="1">
                    <mxGeometry x="203.5" y="491" width="120" height="60" as="geometry"/>
                </mxCell>
                <mxCell id="pOsYEVuAMQ9HLyNE48oW-17" value="" style="endArrow=none;html=1;rounded=0;exitX=0.5;exitY=1;exitDx=0;exitDy=0;entryX=0.5;entryY=0;entryDx=0;entryDy=0;" parent="yzGMiYRflrwIGs22CSFP-1" target="pOsYEVuAMQ9HLyNE48oW-16" edge="1">
                    <mxGeometry relative="1" as="geometry">
                        <mxPoint x="263.5" y="451" as="sourcePoint"/>
                        <mxPoint x="193.5" y="571" as="targetPoint"/>
                    </mxGeometry>
                </mxCell>
                <mxCell id="pOsYEVuAMQ9HLyNE48oW-18" value="(0,N)" style="edgeLabel;html=1;align=center;verticalAlign=middle;resizable=0;points=[];" parent="pOsYEVuAMQ9HLyNE48oW-17" vertex="1" connectable="0">
                    <mxGeometry x="-0.05" y="2" relative="1" as="geometry">
                        <mxPoint x="-22" as="offset"/>
                    </mxGeometry>
                </mxCell>
                <mxCell id="pOsYEVuAMQ9HLyNE48oW-19" value="" style="endArrow=none;html=1;rounded=0;exitX=0.5;exitY=1;exitDx=0;exitDy=0;entryX=0.5;entryY=0;entryDx=0;entryDy=0;" parent="yzGMiYRflrwIGs22CSFP-1" source="pOsYEVuAMQ9HLyNE48oW-16" edge="1">
                    <mxGeometry relative="1" as="geometry">
                        <mxPoint x="3.5" y="561" as="sourcePoint"/>
                        <mxPoint x="263.5" y="591" as="targetPoint"/>
                    </mxGeometry>
                </mxCell>
                <mxCell id="pOsYEVuAMQ9HLyNE48oW-20" value="(0,N)" style="edgeLabel;html=1;align=center;verticalAlign=middle;resizable=0;points=[];" parent="pOsYEVuAMQ9HLyNE48oW-19" vertex="1" connectable="0">
                    <mxGeometry x="0.5" y="-1" relative="1" as="geometry">
                        <mxPoint x="-19" y="-10" as="offset"/>
                    </mxGeometry>
                </mxCell>
                <mxCell id="pOsYEVuAMQ9HLyNE48oW-25" value="Gerarchia Generi" style="shape=rhombus;perimeter=rhombusPerimeter;whiteSpace=wrap;html=1;align=center;" parent="yzGMiYRflrwIGs22CSFP-1" vertex="1">
                    <mxGeometry x="313" y="650" width="120" height="60" as="geometry"/>
                </mxCell>
                <mxCell id="pOsYEVuAMQ9HLyNE48oW-26" value="" style="endArrow=none;html=1;rounded=0;exitX=0.5;exitY=1;exitDx=0;exitDy=0;edgeStyle=orthogonalEdgeStyle;entryX=0;entryY=0.5;entryDx=0;entryDy=0;" parent="yzGMiYRflrwIGs22CSFP-1" source="pOsYEVuAMQ9HLyNE48oW-9" target="pOsYEVuAMQ9HLyNE48oW-25" edge="1">
                    <mxGeometry relative="1" as="geometry">
                        <mxPoint x="109" y="679.5" as="sourcePoint"/>
                        <mxPoint x="310" y="680" as="targetPoint"/>
                        <Array as="points">
                            <mxPoint x="262" y="680"/>
                        </Array>
                    </mxGeometry>
                </mxCell>
                <mxCell id="pOsYEVuAMQ9HLyNE48oW-27" value="(0,1)" style="edgeLabel;html=1;align=center;verticalAlign=middle;resizable=0;points=[];" parent="pOsYEVuAMQ9HLyNE48oW-26" vertex="1" connectable="0">
                    <mxGeometry x="-0.2211" y="-2" relative="1" as="geometry">
                        <mxPoint x="-18" y="-29" as="offset"/>
                    </mxGeometry>
                </mxCell>
                <mxCell id="pOsYEVuAMQ9HLyNE48oW-28" value="" style="endArrow=none;html=1;rounded=0;exitX=1;exitY=0.5;exitDx=0;exitDy=0;edgeStyle=orthogonalEdgeStyle;entryX=0.5;entryY=0;entryDx=0;entryDy=0;" parent="yzGMiYRflrwIGs22CSFP-1" source="pOsYEVuAMQ9HLyNE48oW-9" target="pOsYEVuAMQ9HLyNE48oW-25" edge="1">
                    <mxGeometry relative="1" as="geometry">
                        <mxPoint x="272" y="641" as="sourcePoint"/>
                        <mxPoint x="323" y="690" as="targetPoint"/>
                        <Array as="points">
                            <mxPoint x="373" y="611"/>
                        </Array>
                    </mxGeometry>
                </mxCell>
                <mxCell id="pOsYEVuAMQ9HLyNE48oW-29" value="(0,N)" style="edgeLabel;html=1;align=center;verticalAlign=middle;resizable=0;points=[];" parent="pOsYEVuAMQ9HLyNE48oW-28" vertex="1" connectable="0">
                    <mxGeometry x="-0.2211" y="-2" relative="1" as="geometry">
                        <mxPoint x="-18" y="-14" as="offset"/>
                    </mxGeometry>
                </mxCell>
                <mxCell id="pOsYEVuAMQ9HLyNE48oW-30" value="genere padre" style="text;html=1;strokeColor=none;fillColor=none;align=center;verticalAlign=middle;whiteSpace=wrap;rounded=0;" parent="yzGMiYRflrwIGs22CSFP-1" vertex="1">
                    <mxGeometry x="379" y="616" width="42.1" height="20" as="geometry"/>
                </mxCell>
                <mxCell id="pOsYEVuAMQ9HLyNE48oW-31" value="genere figlio" style="text;html=1;strokeColor=none;fillColor=none;align=center;verticalAlign=middle;whiteSpace=wrap;rounded=0;" parent="yzGMiYRflrwIGs22CSFP-1" vertex="1">
                    <mxGeometry x="267.9" y="690" width="42.1" height="20" as="geometry"/>
                </mxCell>
                <mxCell id="tNF-cy25g8N9-4iYRF79-0" value="Copia" style="whiteSpace=wrap;html=1;align=center;" vertex="1" parent="yzGMiYRflrwIGs22CSFP-1">
                    <mxGeometry x="-110" y="299" width="100" height="40" as="geometry"/>
                </mxCell>
                <mxCell id="tNF-cy25g8N9-4iYRF79-1" value="Riproduzione" style="shape=rhombus;perimeter=rhombusPerimeter;whiteSpace=wrap;html=1;align=center;" vertex="1" parent="yzGMiYRflrwIGs22CSFP-1">
                    <mxGeometry x="45.5" y="289" width="120" height="60" as="geometry"/>
                </mxCell>
                <mxCell id="tNF-cy25g8N9-4iYRF79-3" value="" style="endArrow=none;html=1;rounded=0;entryX=0;entryY=0.5;entryDx=0;entryDy=0;exitX=1;exitY=0.5;exitDx=0;exitDy=0;" edge="1" parent="yzGMiYRflrwIGs22CSFP-1" source="tNF-cy25g8N9-4iYRF79-1" target="yzGMiYRflrwIGs22CSFP-3">
                    <mxGeometry relative="1" as="geometry">
                        <mxPoint x="170" y="320" as="sourcePoint"/>
                        <mxPoint x="205.55" y="400" as="targetPoint"/>
                    </mxGeometry>
                </mxCell>
                <mxCell id="tNF-cy25g8N9-4iYRF79-4" value="(1,N)" style="edgeLabel;html=1;align=center;verticalAlign=middle;resizable=0;points=[];" vertex="1" connectable="0" parent="tNF-cy25g8N9-4iYRF79-3">
                    <mxGeometry x="-0.2211" y="-2" relative="1" as="geometry">
                        <mxPoint x="-15" y="-12" as="offset"/>
                    </mxGeometry>
                </mxCell>
                <mxCell id="tNF-cy25g8N9-4iYRF79-5" value="" style="endArrow=none;html=1;rounded=0;entryX=0;entryY=0.5;entryDx=0;entryDy=0;exitX=1;exitY=0.5;exitDx=0;exitDy=0;" edge="1" parent="yzGMiYRflrwIGs22CSFP-1" source="tNF-cy25g8N9-4iYRF79-0" target="tNF-cy25g8N9-4iYRF79-1">
                    <mxGeometry relative="1" as="geometry">
                        <mxPoint x="-40" y="410" as="sourcePoint"/>
                        <mxPoint x="74.5" y="411" as="targetPoint"/>
                    </mxGeometry>
                </mxCell>
                <mxCell id="tNF-cy25g8N9-4iYRF79-6" value="(1,1)" style="edgeLabel;html=1;align=center;verticalAlign=middle;resizable=0;points=[];" vertex="1" connectable="0" parent="tNF-cy25g8N9-4iYRF79-5">
                    <mxGeometry x="-0.2211" y="-2" relative="1" as="geometry">
                        <mxPoint x="-2" y="-12" as="offset"/>
                    </mxGeometry>
                </mxCell>
                <mxCell id="5uLm16UJGlhJ5QHhAFZA-0" value="Data Acquisizione" style="text;html=1;strokeColor=none;fillColor=none;align=center;verticalAlign=middle;whiteSpace=wrap;rounded=0;" vertex="1" parent="yzGMiYRflrwIGs22CSFP-1">
                    <mxGeometry x="-93" y="227" width="60" height="20" as="geometry"/>
                </mxCell>
                <mxCell id="5uLm16UJGlhJ5QHhAFZA-1" value="" style="endArrow=none;html=1;rounded=0;exitX=0.5;exitY=1;exitDx=0;exitDy=0;entryX=0.5;entryY=0;entryDx=0;entryDy=0;" edge="1" source="5uLm16UJGlhJ5QHhAFZA-2" parent="yzGMiYRflrwIGs22CSFP-1" target="tNF-cy25g8N9-4iYRF79-0">
                    <mxGeometry relative="1" as="geometry">
                        <mxPoint x="-333" y="256" as="sourcePoint"/>
                        <mxPoint x="-10" y="216" as="targetPoint"/>
                    </mxGeometry>
                </mxCell>
                <mxCell id="5uLm16UJGlhJ5QHhAFZA-2" value="" style="ellipse;whiteSpace=wrap;html=1;aspect=fixed;" vertex="1" parent="yzGMiYRflrwIGs22CSFP-1">
                    <mxGeometry x="-65" y="256" width="10" height="10" as="geometry"/>
                </mxCell>
                <mxCell id="5uLm16UJGlhJ5QHhAFZA-11" value="" style="rounded=0;whiteSpace=wrap;html=1;fillColor=#FFFFFF;" vertex="1" parent="yzGMiYRflrwIGs22CSFP-1">
                    <mxGeometry x="-65" y="348" width="10" height="62" as="geometry"/>
                </mxCell>
                <mxCell id="5uLm16UJGlhJ5QHhAFZA-12" value="Codice" style="text;html=1;strokeColor=none;fillColor=none;align=center;verticalAlign=middle;whiteSpace=wrap;rounded=0;" vertex="1" parent="yzGMiYRflrwIGs22CSFP-1">
                    <mxGeometry x="-120" y="698.5" width="60" height="20" as="geometry"/>
                </mxCell>
                <mxCell id="5uLm16UJGlhJ5QHhAFZA-13" value="" style="endArrow=none;html=1;rounded=0;entryX=0.25;entryY=1;entryDx=0;entryDy=0;exitX=0.5;exitY=0;exitDx=0;exitDy=0;" edge="1" source="5uLm16UJGlhJ5QHhAFZA-44" parent="yzGMiYRflrwIGs22CSFP-1" target="5uLm16UJGlhJ5QHhAFZA-24">
                    <mxGeometry relative="1" as="geometry">
                        <mxPoint x="-98" y="682" as="sourcePoint"/>
                        <mxPoint x="-82" y="523" as="targetPoint"/>
                    </mxGeometry>
                </mxCell>
                <mxCell id="5uLm16UJGlhJ5QHhAFZA-16" value="" style="endArrow=none;html=1;rounded=0;exitX=0;exitY=1;exitDx=0;exitDy=0;entryX=0.75;entryY=0;entryDx=0;entryDy=0;" edge="1" source="5uLm16UJGlhJ5QHhAFZA-17" parent="yzGMiYRflrwIGs22CSFP-1" target="yzGMiYRflrwIGs22CSFP-3">
                    <mxGeometry relative="1" as="geometry">
                        <mxPoint x="235" y="276" as="sourcePoint"/>
                        <mxPoint x="368" y="266" as="targetPoint"/>
                    </mxGeometry>
                </mxCell>
                <mxCell id="5uLm16UJGlhJ5QHhAFZA-17" value="" style="ellipse;whiteSpace=wrap;html=1;aspect=fixed;" vertex="1" parent="yzGMiYRflrwIGs22CSFP-1">
                    <mxGeometry x="390" y="271" width="10" height="10" as="geometry"/>
                </mxCell>
                <mxCell id="5uLm16UJGlhJ5QHhAFZA-18" value="Num Copie Disponibili" style="text;html=1;strokeColor=none;fillColor=none;align=center;verticalAlign=middle;whiteSpace=wrap;rounded=0;" vertex="1" parent="yzGMiYRflrwIGs22CSFP-1">
                    <mxGeometry x="392" y="259" width="89" height="20" as="geometry"/>
                </mxCell>
                <mxCell id="5uLm16UJGlhJ5QHhAFZA-24" value="Ricevuta" style="whiteSpace=wrap;html=1;align=center;" vertex="1" parent="yzGMiYRflrwIGs22CSFP-1">
                    <mxGeometry x="-110" y="591" width="100" height="40" as="geometry"/>
                </mxCell>
                <mxCell id="5uLm16UJGlhJ5QHhAFZA-25" value="C-R" style="shape=rhombus;perimeter=rhombusPerimeter;whiteSpace=wrap;html=1;align=center;" vertex="1" parent="yzGMiYRflrwIGs22CSFP-1">
                    <mxGeometry x="-120" y="491" width="120" height="60" as="geometry"/>
                </mxCell>
                <mxCell id="5uLm16UJGlhJ5QHhAFZA-26" value="" style="endArrow=none;html=1;rounded=0;entryX=0.5;entryY=0;entryDx=0;entryDy=0;startArrow=none;" edge="1" target="5uLm16UJGlhJ5QHhAFZA-25" parent="yzGMiYRflrwIGs22CSFP-1" source="5uLm16UJGlhJ5QHhAFZA-6">
                    <mxGeometry relative="1" as="geometry">
                        <mxPoint x="-60" y="430" as="sourcePoint"/>
                        <mxPoint x="26.139999999999986" y="563" as="targetPoint"/>
                    </mxGeometry>
                </mxCell>
                <mxCell id="5uLm16UJGlhJ5QHhAFZA-33" value="(1,1)" style="edgeLabel;html=1;align=center;verticalAlign=middle;resizable=0;points=[];" vertex="1" connectable="0" parent="5uLm16UJGlhJ5QHhAFZA-26">
                    <mxGeometry x="0.0523" y="-1" relative="1" as="geometry">
                        <mxPoint x="-19" y="-3" as="offset"/>
                    </mxGeometry>
                </mxCell>
                <mxCell id="5uLm16UJGlhJ5QHhAFZA-28" value="" style="endArrow=none;html=1;rounded=0;exitX=0.5;exitY=1;exitDx=0;exitDy=0;entryX=0.5;entryY=0;entryDx=0;entryDy=0;" edge="1" source="5uLm16UJGlhJ5QHhAFZA-25" parent="yzGMiYRflrwIGs22CSFP-1" target="5uLm16UJGlhJ5QHhAFZA-24">
                    <mxGeometry relative="1" as="geometry">
                        <mxPoint x="-163.86" y="553" as="sourcePoint"/>
                        <mxPoint x="96.13999999999999" y="583" as="targetPoint"/>
                    </mxGeometry>
                </mxCell>
                <mxCell id="5uLm16UJGlhJ5QHhAFZA-29" value="(1,1)" style="edgeLabel;html=1;align=center;verticalAlign=middle;resizable=0;points=[];" vertex="1" connectable="0" parent="5uLm16UJGlhJ5QHhAFZA-28">
                    <mxGeometry x="0.5" y="-1" relative="1" as="geometry">
                        <mxPoint x="-19" y="-10" as="offset"/>
                    </mxGeometry>
                </mxCell>
                <mxCell id="5uLm16UJGlhJ5QHhAFZA-31" value="" style="endArrow=none;html=1;rounded=0;entryX=0.5;entryY=0;entryDx=0;entryDy=0;" edge="1" parent="yzGMiYRflrwIGs22CSFP-1" target="5uLm16UJGlhJ5QHhAFZA-6">
                    <mxGeometry relative="1" as="geometry">
                        <mxPoint x="-60" y="430" as="sourcePoint"/>
                        <mxPoint x="96.13999999999987" y="483" as="targetPoint"/>
                    </mxGeometry>
                </mxCell>
                <mxCell id="5uLm16UJGlhJ5QHhAFZA-32" value="(0,N)" style="edgeLabel;html=1;align=center;verticalAlign=middle;resizable=0;points=[];" vertex="1" connectable="0" parent="5uLm16UJGlhJ5QHhAFZA-31">
                    <mxGeometry x="-0.05" y="2" relative="1" as="geometry">
                        <mxPoint x="-22" as="offset"/>
                    </mxGeometry>
                </mxCell>
                <mxCell id="5uLm16UJGlhJ5QHhAFZA-6" value="Copia Venduta" style="whiteSpace=wrap;html=1;align=center;" vertex="1" parent="yzGMiYRflrwIGs22CSFP-1">
                    <mxGeometry x="-110" y="410" width="100" height="40" as="geometry"/>
                </mxCell>
                <mxCell id="5uLm16UJGlhJ5QHhAFZA-35" value="" style="endArrow=none;html=1;rounded=0;exitX=0;exitY=0.5;exitDx=0;exitDy=0;entryX=1;entryY=0.25;entryDx=0;entryDy=0;" edge="1" source="5uLm16UJGlhJ5QHhAFZA-36" parent="yzGMiYRflrwIGs22CSFP-1" target="5uLm16UJGlhJ5QHhAFZA-6">
                    <mxGeometry relative="1" as="geometry">
                        <mxPoint x="-133" y="428.85" as="sourcePoint"/>
                        <mxPoint y="418.85" as="targetPoint"/>
                    </mxGeometry>
                </mxCell>
                <mxCell id="5uLm16UJGlhJ5QHhAFZA-36" value="" style="ellipse;whiteSpace=wrap;html=1;aspect=fixed;" vertex="1" parent="yzGMiYRflrwIGs22CSFP-1">
                    <mxGeometry x="31" y="408.85" width="10" height="10" as="geometry"/>
                </mxCell>
                <mxCell id="5uLm16UJGlhJ5QHhAFZA-37" value="Data vendita" style="text;html=1;strokeColor=none;fillColor=none;align=center;verticalAlign=middle;whiteSpace=wrap;rounded=0;" vertex="1" parent="yzGMiYRflrwIGs22CSFP-1">
                    <mxGeometry x="42" y="403.85" width="89" height="20" as="geometry"/>
                </mxCell>
                <mxCell id="5uLm16UJGlhJ5QHhAFZA-38" value="" style="endArrow=none;html=1;rounded=0;exitX=0;exitY=0.5;exitDx=0;exitDy=0;entryX=1;entryY=0.75;entryDx=0;entryDy=0;" edge="1" source="5uLm16UJGlhJ5QHhAFZA-39" parent="yzGMiYRflrwIGs22CSFP-1" target="5uLm16UJGlhJ5QHhAFZA-6">
                    <mxGeometry relative="1" as="geometry">
                        <mxPoint x="-88" y="428.85" as="sourcePoint"/>
                        <mxPoint y="438.85" as="targetPoint"/>
                    </mxGeometry>
                </mxCell>
                <mxCell id="5uLm16UJGlhJ5QHhAFZA-39" value="" style="ellipse;whiteSpace=wrap;html=1;aspect=fixed;" vertex="1" parent="yzGMiYRflrwIGs22CSFP-1">
                    <mxGeometry x="31" y="438.85" width="10" height="10" as="geometry"/>
                </mxCell>
                <mxCell id="5uLm16UJGlhJ5QHhAFZA-40" value="Email cliente" style="text;html=1;strokeColor=none;fillColor=none;align=center;verticalAlign=middle;whiteSpace=wrap;rounded=0;" vertex="1" parent="yzGMiYRflrwIGs22CSFP-1">
                    <mxGeometry x="41" y="433.85" width="90" height="20" as="geometry"/>
                </mxCell>
                <mxCell id="5uLm16UJGlhJ5QHhAFZA-41" value="Cod. Fiscale Acuqirente" style="text;html=1;strokeColor=none;fillColor=none;align=center;verticalAlign=middle;whiteSpace=wrap;rounded=0;" vertex="1" parent="yzGMiYRflrwIGs22CSFP-1">
                    <mxGeometry x="-55" y="710" width="75" height="20" as="geometry"/>
                </mxCell>
                <mxCell id="5uLm16UJGlhJ5QHhAFZA-42" value="" style="endArrow=none;html=1;rounded=0;entryX=0.75;entryY=1;entryDx=0;entryDy=0;exitX=0.5;exitY=0;exitDx=0;exitDy=0;" edge="1" source="5uLm16UJGlhJ5QHhAFZA-43" parent="yzGMiYRflrwIGs22CSFP-1" target="5uLm16UJGlhJ5QHhAFZA-24">
                    <mxGeometry relative="1" as="geometry">
                        <mxPoint x="-32" y="466.5" as="sourcePoint"/>
                        <mxPoint x="3" y="647.5" as="targetPoint"/>
                    </mxGeometry>
                </mxCell>
                <mxCell id="5uLm16UJGlhJ5QHhAFZA-43" value="" style="ellipse;whiteSpace=wrap;html=1;aspect=fixed;" vertex="1" parent="yzGMiYRflrwIGs22CSFP-1">
                    <mxGeometry x="-26" y="688.5" width="10" height="10" as="geometry"/>
                </mxCell>
                <mxCell id="5uLm16UJGlhJ5QHhAFZA-44" value="" style="ellipse;whiteSpace=wrap;html=1;aspect=fixed;fillColor=#000000;" vertex="1" parent="yzGMiYRflrwIGs22CSFP-1">
                    <mxGeometry x="-95" y="688.5" width="10" height="10" as="geometry"/>
                </mxCell>
            </root>
        </mxGraphModel>
    </diagram>
</mxfile>